<?xml version="1.0" encoding="utf-8"?>
<!-- Generator: Adobe Illustrator 16.0.0, SVG Export Plug-In . SVG Version: 6.00 Build 0)  -->
<!DOCTYPE svg PUBLIC "-//W3C//DTD SVG 1.1//EN" "http://www.w3.org/Graphics/SVG/1.1/DTD/svg11.dtd">
<svg version="1.1" id="Layer_1" xmlns="http://www.w3.org/2000/svg" xmlns:xlink="http://www.w3.org/1999/xlink" x="0px" y="0px"
	 width="792px" height="142px" viewBox="0 0 792 142" enable-background="new 0 0 792 142" xml:space="preserve">
<g>
	<g>
		<path d="M13.5,34.38c132.67,0.248,265.341,0.272,398.012,0.17c123.452-0.095,246.903-0.3,370.355-0.531
			c3.224-0.006,3.225-5.006,0-5c-132.729,0.249-265.46,0.465-398.19,0.55C260.285,29.648,136.892,29.61,13.5,29.38
			C10.275,29.374,10.275,34.374,13.5,34.38L13.5,34.38z"/>
	</g>
</g>
<g>
	<g>
		<path d="M13.5,114.76c65.858-0.192,131.703-1.646,197.541-3.188c32.953-0.771,65.912-1.792,98.872-2.181
			c32.967-0.389,65.935,0.329,98.901,0.465c15.165,0.062,30.332-0.021,45.494-0.36c7.915-0.177,15.827-0.453,23.736-0.806
			c7.878-0.352,15.818,0.351,23.703,0.596c31.415,0.975,62.855,0.539,94.277,0.229c61.944-0.614,124.015,0.39,185.938,2.125
			c3.227,0.091,3.218-4.91,0-5c-65.206-1.827-130.524-2.683-195.75-2.027c-32.764,0.33-65.538,0.562-98.282-0.834
			c-16.399-0.698-33.016,0.79-49.447,0.987c-16.482,0.199-32.968,0.103-49.45-0.04c-125.209-1.087-250.325,4.67-375.534,5.035
			C10.276,109.77,10.275,114.77,13.5,114.76L13.5,114.76z"/>
	</g>
</g>
<g>
	<g>
		<path d="M13,19.5c31.789,2.659,64.022,1.54,95.88,0.82c32.944-0.746,65.891-1.333,98.84-1.783
			c65.993-0.903,131.985-1.282,197.98-0.611c63.42,0.645,126.837,1.505,190.256,2.275c31.737,0.386,63.476,0.747,95.215,1.05
			c15.604,0.149,31.217,0.662,46.817,0.607c14.481-0.051,28.92-0.462,43.344,1.146c3.202,0.357,3.168-4.647,0-5
			c-15.026-1.675-30.092-1.192-45.179-1.139c-16.309,0.057-32.643-0.495-48.955-0.652c-33.057-0.319-66.112-0.705-99.168-1.109
			c-66.072-0.808-132.143-1.698-198.216-2.336c-63.335-0.611-126.686-0.021-190.016,0.879c-31.623,0.449-63.243,1.041-94.86,1.762
			C74.389,16.106,43.482,17.05,13,14.5C9.785,14.231,9.811,19.233,13,19.5L13,19.5z"/>
	</g>
</g>
<g>
	<g>
		<path d="M12.593,128.833c132.908-3.274,265.855-4.854,398.804-4.785c123.516,0.064,247.031,1.583,370.513,4.487
			c3.227,0.076,3.219-4.924,0-5c-132.786-3.123-265.608-4.625-398.431-4.479c-123.642,0.136-247.282,1.731-370.886,4.776
			C9.374,123.912,9.367,128.912,12.593,128.833L12.593,128.833z"/>
	</g>
</g>
<g>
	<g>
		<path d="M194.492,51.531c-5.222-7.449-13.129-10.517-20.89-4.502c-9.252,7.171-12.418,17.453-10.862,28.842
			c1.227,8.976,4.102,19.357,13.397,23.13c8.688,3.525,17.073-0.704,23.05-7.15c1.57-1.694-0.961-4.237-2.537-2.537
			c-4.626,4.99-10.589,8.689-17.586,6.948c-7.202-1.791-10.687-9.54-12.033-16.107c-1.895-9.243-1.847-18.362,4.295-25.991
			c2.19-2.72,4.946-5.104,8.219-6.391c5.066-1.994,9.135,1.698,11.85,5.569C192.711,55.22,195.824,53.43,194.492,51.531
			L194.492,51.531z"/>
	</g>
</g>
<g>
	<g>
		<path d="M281.026,49.032c-0.086,16.934-2.441,34.023,0.693,50.818c0.206,1.103,1.482,1.65,2.478,1.407
			c11.603-2.836,23.619-2.024,35.384-3.725c2.563-0.37,1.469-4.252-1.071-3.885c-11.78,1.703-23.751,0.882-35.384,3.725
			c0.826,0.469,1.652,0.938,2.478,1.407c-3.059-16.397-0.633-33.212-0.549-49.748C285.067,46.433,281.039,46.435,281.026,49.032
			L281.026,49.032z"/>
	</g>
</g>
<g>
	<g>
		<path d="M283.576,50.974c12.409-1.89,24.741-4.156,37.332-4.273c2.597-0.024,2.599-4.053,0-4.028
			c-12.949,0.121-25.641,2.474-38.403,4.417C279.943,47.479,281.035,51.361,283.576,50.974L283.576,50.974z"/>
	</g>
</g>
<g>
	<g>
		<path d="M283.04,74.015c11.153,1.133,22.334,0.654,33.521,0.621c2.598-0.008,2.598-4.037,0-4.029
			c-11.188,0.034-22.368,0.512-33.521-0.621C280.456,69.723,280.481,73.754,283.04,74.015L283.04,74.015z"/>
	</g>
</g>
<g>
	<g>
		<path d="M404.716,45.286c-1.55,18.385-9.826,35.839-16.193,52.927c-0.85,2.282,2.794,3.258,3.635,1.002
			c6.507-17.463,14.743-35.141,16.328-53.929C408.689,42.862,404.919,42.882,404.716,45.286L404.716,45.286z"/>
	</g>
</g>
<g>
	<g>
		<path d="M406.718,46.818c9.194,16.307,15.675,34.006,25.552,49.944c1.277,2.061,4.538,0.17,3.254-1.902
			c-9.876-15.938-16.356-33.637-25.552-49.944C408.778,42.799,405.522,44.698,406.718,46.818L406.718,46.818z"/>
	</g>
</g>
<g>
	<g>
		<path d="M401.375,75.627c6.001,0,12.002,0,18.003,0c2.431,0,2.431-3.769,0-3.769c-6.001,0-12.002,0-18.003,0
			C398.944,71.858,398.944,75.627,401.375,75.627L401.375,75.627z"/>
	</g>
</g>
<g>
	<g>
		<path d="M501.467,44.02c0,17.751,0,35.503,0,53.255c0,2.254,3.494,2.254,3.494,0c0-17.752,0-35.503,0-53.255
			C504.961,41.766,501.467,41.766,501.467,44.02L501.467,44.02z"/>
	</g>
</g>
<g>
	<g>
		<path d="M501.43,44.431c17.453,14.439,29.015,33.956,40.903,52.902c1.194,1.903,4.219,0.151,3.018-1.764
			c-12.037-19.185-23.777-38.99-41.45-53.609C502.179,40.535,499.691,42.993,501.43,44.431L501.43,44.431z"/>
	</g>
</g>
<g>
	<g>
		<path d="M541.819,40.725c1.566,18.822,0.587,37.694,0.551,56.549c-0.005,2.254,3.49,2.254,3.494,0
			c0.037-18.855,1.017-37.728-0.551-56.549C545.128,38.496,541.632,38.478,541.819,40.725L541.819,40.725z"/>
	</g>
</g>
<g>
	<g>
		<path d="M638.476,48.66c-4.928-7.669-12.808-11.454-20.668-5.134c-9.853,7.921-12.538,19.203-11.248,31.349
			c1.022,9.635,3.858,20.222,13.103,25.044c8.686,4.532,17.85-0.961,23.495-7.588c1.554-1.823-1.077-4.48-2.643-2.643
			c-4.453,5.226-10.391,9.514-17.539,7.554c-7.451-2.044-10.689-10.792-11.954-17.531c-1.94-10.335-1.833-20.52,4.914-29.092
			c2.242-2.85,5.087-5.375,8.585-6.484c4.79-1.519,8.463,2.888,10.727,6.412C636.546,52.567,639.782,50.694,638.476,48.66
			L638.476,48.66z"/>
	</g>
</g>
<g>
	<g>
		<path d="M711.479,45.908c-0.081,18.373-2.453,36.893,0.696,55.136c0.195,1.136,1.56,1.737,2.581,1.466
			c11.573-3.069,23.624-2.196,35.385-4.043c2.668-0.419,1.531-4.463-1.115-4.047c-11.778,1.849-23.779,0.965-35.385,4.043
			c0.86,0.488,1.721,0.977,2.581,1.466c-3.077-17.829-0.625-36.064-0.546-54.021C715.688,43.201,711.491,43.202,711.479,45.908
			L711.479,45.908z"/>
	</g>
</g>
<g>
	<g>
		<path d="M714.136,47.931c12.395-2.048,24.701-4.513,37.31-4.641c2.705-0.027,2.708-4.225,0-4.197
			c-12.981,0.132-25.664,2.682-38.425,4.792C710.354,44.325,711.489,48.369,714.136,47.931L714.136,47.931z"/>
	</g>
</g>
<g>
	<g>
		<path d="M713.578,72.938c11.149,1.229,22.331,0.71,33.521,0.674c2.706-0.01,2.707-4.207,0-4.198
			c-11.19,0.037-22.372,0.555-33.521-0.674C710.89,68.443,710.918,72.644,713.578,72.938L713.578,72.938z"/>
	</g>
</g>
<g>
	<g>
		<path d="M88.349,51.003c-3.592-11.514-19.328-14.562-29.497-11.158c-5.362,1.795-10.078,6.855-11.53,12.302
			c-1.284,4.815,2.394,8.57,6.183,10.783c9.502,5.548,38.209,4.271,32.795,21.586c-2.725,8.715-12.991,13.997-21.582,13.711
			c-8.725-0.291-14.511-7.344-12.97-15.859c0.445-2.458-3.312-3.508-3.759-1.037c-2.418,13.361,8.348,22.147,21.203,20.597
			c12.099-1.461,27.046-15.284,19.676-28.025C81.278,60.78,62.06,66.983,52.3,57.186c-3.251-3.263,0.322-7.692,2.607-10.219
			c2.8-3.097,6.786-4.237,10.831-4.533c6.895-0.503,16.565,2.278,18.852,9.605C85.336,54.431,89.1,53.41,88.349,51.003
			L88.349,51.003z"/>
	</g>
</g>
<g>
	<g>
		<path d="M10.784,17c-0.053,36.691-2.946,73.31-3,110c-0.004,2.858,4.428,2.857,4.432,0c0.054-36.69,2.948-73.309,3-110
			C15.22,14.142,10.788,14.142,10.784,17L10.784,17z"/>
	</g>
</g>
<g>
	<g>
		<path d="M121.833,33.667c0,24.223,0,48.445,0,72.667c0,3.225,5,3.225,5,0c0-24.223,0-48.445,0-72.667
			C126.833,30.442,121.833,30.442,121.833,33.667L121.833,33.667z"/>
	</g>
</g>
<g>
	<g>
		<path d="M235.167,35c2.542,23.514,0.071,47.103,0,70.666c-0.01,3.225,4.99,3.224,5,0c0.071-23.563,2.542-47.152,0-70.666
			C239.824,31.83,234.82,31.796,235.167,35L235.167,35z"/>
	</g>
</g>
<g>
	<g>
		<path d="M358.5,33.667c-0.087,23.604-3.244,47.066-3.333,70.667c-0.012,3.225,4.988,3.224,5,0
			c0.089-23.602,3.246-47.064,3.333-70.667C363.512,30.441,358.512,30.443,358.5,33.667L358.5,33.667z"/>
	</g>
</g>
<g>
	<g>
		<path d="M464.589,36.998c3.212,22.975,0.697,46.25,1.911,69.336c0.169,3.207,5.17,3.224,5,0
			c-1.238-23.559,1.188-47.215-2.089-70.665C468.966,32.487,464.148,33.846,464.589,36.998L464.589,36.998z"/>
	</g>
</g>
<g>
	<g>
		<path d="M667.658,34.665c3.212,22.974,0.697,46.25,1.911,69.335c0.169,3.207,5.169,3.224,5,0
			c-1.238-23.559,1.188-47.215-2.089-70.665C672.035,30.153,667.218,31.513,667.658,34.665L667.658,34.665z"/>
	</g>
</g>
<g>
	<g>
		<path d="M778.326,20.47c2.976,34.429,0.08,68.991,1.009,103.478c0.087,3.218,5.087,3.227,5,0
			c-0.929-34.486,1.967-69.049-1.009-103.478C783.051,17.283,778.049,17.256,778.326,20.47L778.326,20.47z"/>
	</g>
</g>
<g>
	<g>
		<path d="M576.229,34.665c3.212,22.974,0.698,46.25,1.911,69.335c0.169,3.207,5.17,3.224,5,0
			c-1.238-23.559,1.188-47.215-2.089-70.665C580.606,30.153,575.789,31.513,576.229,34.665L576.229,34.665z"/>
	</g>
</g>
<g>
	<g>
		<path d="M30,28.167c3.224,0,3.224-5,0-5S26.776,28.167,30,28.167L30,28.167z"/>
	</g>
</g>
<g>
	<g>
		<path d="M48.667,28.167c3.224,0,3.224-5,0-5S45.442,28.167,48.667,28.167L48.667,28.167z"/>
	</g>
</g>
<g>
	<g>
		<path d="M66,27.833c3.224,0,3.224-5,0-5S62.776,27.833,66,27.833L66,27.833z"/>
	</g>
</g>
<g>
	<g>
		<path d="M83.333,27.833c3.224,0,3.224-5,0-5S80.109,27.833,83.333,27.833L83.333,27.833z"/>
	</g>
</g>
<g>
	<g>
		<path d="M100.333,27.833c3.224,0,3.224-5,0-5S97.109,27.833,100.333,27.833L100.333,27.833z"/>
	</g>
</g>
<g>
	<g>
		<path d="M116.333,27.5c3.224,0,3.224-5,0-5S113.109,27.5,116.333,27.5L116.333,27.5z"/>
	</g>
</g>
<g>
	<g>
		<path d="M132,27.833c3.224,0,3.224-5,0-5S128.776,27.833,132,27.833L132,27.833z"/>
	</g>
</g>
<g>
	<g>
		<path d="M145.667,27.833c3.224,0,3.224-5,0-5S142.442,27.833,145.667,27.833L145.667,27.833z"/>
	</g>
</g>
<g>
	<g>
		<path d="M158.333,27.5c3.224,0,3.224-5,0-5S155.109,27.5,158.333,27.5L158.333,27.5z"/>
	</g>
</g>
<g>
	<g>
		<path d="M173.333,27.5c3.224,0,3.224-5,0-5S170.109,27.5,173.333,27.5L173.333,27.5z"/>
	</g>
</g>
<g>
	<g>
		<path d="M187.667,27.5c3.224,0,3.224-5,0-5S184.442,27.5,187.667,27.5L187.667,27.5z"/>
	</g>
</g>
<g>
	<g>
		<path d="M202.667,27.5c3.224,0,3.224-5,0-5S199.442,27.5,202.667,27.5L202.667,27.5z"/>
	</g>
</g>
<g>
	<g>
		<path d="M215.667,27.167c3.224,0,3.224-5,0-5S212.442,27.167,215.667,27.167L215.667,27.167z"/>
	</g>
</g>
<g>
	<g>
		<path d="M229.333,27.167c3.224,0,3.224-5,0-5S226.109,27.167,229.333,27.167L229.333,27.167z"/>
	</g>
</g>
<g>
	<g>
		<path d="M245.667,27.5c3.224,0,3.224-5,0-5S242.442,27.5,245.667,27.5L245.667,27.5z"/>
	</g>
</g>
<g>
	<g>
		<path d="M259,27.167c3.224,0,3.224-5,0-5S255.776,27.167,259,27.167L259,27.167z"/>
	</g>
</g>
<g>
	<g>
		<path d="M273.333,27.167c3.224,0,3.224-5,0-5S270.109,27.167,273.333,27.167L273.333,27.167z"/>
	</g>
</g>
<g>
	<g>
		<path d="M288.667,27.167c3.224,0,3.224-5,0-5S285.442,27.167,288.667,27.167L288.667,27.167z"/>
	</g>
</g>
<g>
	<g>
		<path d="M303.333,26.833c3.224,0,3.224-5,0-5S300.109,26.833,303.333,26.833L303.333,26.833z"/>
	</g>
</g>
<g>
	<g>
		<path d="M316.333,26.833c3.224,0,3.224-5,0-5S313.109,26.833,316.333,26.833L316.333,26.833z"/>
	</g>
</g>
<g>
	<g>
		<path d="M330.667,26.833c3.224,0,3.224-5,0-5S327.442,26.833,330.667,26.833L330.667,26.833z"/>
	</g>
</g>
<g>
	<g>
		<path d="M344.667,26.833c3.224,0,3.224-5,0-5S341.442,26.833,344.667,26.833L344.667,26.833z"/>
	</g>
</g>
<g>
	<g>
		<path d="M357.667,27.167c3.224,0,3.224-5,0-5S354.442,27.167,357.667,27.167L357.667,27.167z"/>
	</g>
</g>
<g>
	<g>
		<path d="M371.667,27.167c3.224,0,3.224-5,0-5S368.443,27.167,371.667,27.167L371.667,27.167z"/>
	</g>
</g>
<g>
	<g>
		<path d="M385.667,27.167c3.224,0,3.224-5,0-5S382.443,27.167,385.667,27.167L385.667,27.167z"/>
	</g>
</g>
<g>
	<g>
		<path d="M399.667,27.501c3.225,0,3.225-5,0-5C396.443,22.501,396.443,27.501,399.667,27.501L399.667,27.501z"/>
	</g>
</g>
<g>
	<g>
		<path d="M414,27.167c3.225,0,3.225-5,0-5S410.775,27.167,414,27.167L414,27.167z"/>
	</g>
</g>
<g>
	<g>
		<path d="M427.667,27.167c3.225,0,3.225-5,0-5S424.442,27.167,427.667,27.167L427.667,27.167z"/>
	</g>
</g>
<g>
	<g>
		<path d="M440,27.167c3.225,0,3.225-5,0-5S436.775,27.167,440,27.167L440,27.167z"/>
	</g>
</g>
<g>
	<g>
		<path d="M453,26.834c3.225,0,3.225-5,0-5S449.775,26.834,453,26.834L453,26.834z"/>
	</g>
</g>
<g>
	<g>
		<path d="M466.667,26.834c3.225,0,3.225-5,0-5S463.442,26.834,466.667,26.834L466.667,26.834z"/>
	</g>
</g>
<g>
	<g>
		<path d="M481,27.501c3.225,0,3.225-5,0-5S477.775,27.501,481,27.501L481,27.501z"/>
	</g>
</g>
<g>
	<g>
		<path d="M495,27.166c3.225,0,3.225-5,0-5S491.775,27.166,495,27.166L495,27.166z"/>
	</g>
</g>
<g>
	<g>
		<path d="M508.889,27.166c3.225,0,3.225-5,0-5S505.664,27.166,508.889,27.166L508.889,27.166z"/>
	</g>
</g>
<g>
	<g>
		<path d="M522.223,27.166c3.225,0,3.225-5,0-5S518.998,27.166,522.223,27.166L522.223,27.166z"/>
	</g>
</g>
<g>
	<g>
		<path d="M536.111,26.611c3.225,0,3.225-5,0-5S532.887,26.611,536.111,26.611L536.111,26.611z"/>
	</g>
</g>
<g>
	<g>
		<path d="M548.334,27.166c3.225,0,3.225-5,0-5S545.109,27.166,548.334,27.166L548.334,27.166z"/>
	</g>
</g>
<g>
	<g>
		<path d="M561.667,27.166c3.225,0,3.225-5,0-5S558.442,27.166,561.667,27.166L561.667,27.166z"/>
	</g>
</g>
<g>
	<g>
		<path d="M575,27.166c3.225,0,3.225-5,0-5S571.775,27.166,575,27.166L575,27.166z"/>
	</g>
</g>
<g>
	<g>
		<path d="M588.334,27.166c3.225,0,3.225-5,0-5S585.109,27.166,588.334,27.166L588.334,27.166z"/>
	</g>
</g>
<g>
	<g>
		<path d="M601.111,27.722c3.225,0,3.225-5,0-5S597.887,27.722,601.111,27.722L601.111,27.722z"/>
	</g>
</g>
<g>
	<g>
		<path d="M615,27.722c3.225,0,3.225-5,0-5S611.775,27.722,615,27.722L615,27.722z"/>
	</g>
</g>
<g>
	<g>
		<path d="M628.889,27.166c3.225,0,3.225-5,0-5S625.664,27.166,628.889,27.166L628.889,27.166z"/>
	</g>
</g>
<g>
	<g>
		<path d="M641.667,27.166c3.225,0,3.225-5,0-5S638.442,27.166,641.667,27.166L641.667,27.166z"/>
	</g>
</g>
<g>
	<g>
		<path d="M655,27.722c3.225,0,3.225-5,0-5S651.775,27.722,655,27.722L655,27.722z"/>
	</g>
</g>
<g>
	<g>
		<path d="M667.223,27.722c3.225,0,3.225-5,0-5S663.998,27.722,667.223,27.722L667.223,27.722z"/>
	</g>
</g>
<g>
	<g>
		<path d="M681.111,27.722c3.225,0,3.225-5,0-5S677.887,27.722,681.111,27.722L681.111,27.722z"/>
	</g>
</g>
<g>
	<g>
		<path d="M692.778,27.722c3.225,0,3.225-5,0-5S689.554,27.722,692.778,27.722L692.778,27.722z"/>
	</g>
</g>
<g>
	<g>
		<path d="M705.556,28.277c3.225,0,3.225-5,0-5S702.331,28.277,705.556,28.277L705.556,28.277z"/>
	</g>
</g>
<g>
	<g>
		<path d="M719.444,28.277c3.225,0,3.225-5,0-5S716.22,28.277,719.444,28.277L719.444,28.277z"/>
	</g>
</g>
<g>
	<g>
		<path d="M733.889,28.277c3.225,0,3.225-5,0-5S730.664,28.277,733.889,28.277L733.889,28.277z"/>
	</g>
</g>
<g>
	<g>
		<path d="M747.223,28.277c3.225,0,3.225-5,0-5S743.998,28.277,747.223,28.277L747.223,28.277z"/>
	</g>
</g>
<g>
	<g>
		<path d="M761.111,28.833c3.225,0,3.225-5,0-5S757.887,28.833,761.111,28.833L761.111,28.833z"/>
	</g>
</g>
<g>
	<g>
		<path d="M27.667,121.834c3.224,0,3.224-5,0-5S24.443,121.834,27.667,121.834L27.667,121.834z"/>
	</g>
</g>
<g>
	<g>
		<path d="M44.333,121.834c3.224,0,3.224-5,0-5S41.109,121.834,44.333,121.834L44.333,121.834z"/>
	</g>
</g>
<g>
	<g>
		<path d="M62.333,121.167c3.224,0,3.224-5,0-5S59.109,121.167,62.333,121.167L62.333,121.167z"/>
	</g>
</g>
<g>
	<g>
		<path d="M79.333,121.5c3.224,0,3.224-5,0-5S76.109,121.5,79.333,121.5L79.333,121.5z"/>
	</g>
</g>
<g>
	<g>
		<path d="M97.333,120.5c3.224,0,3.224-5,0-5S94.109,120.5,97.333,120.5L97.333,120.5z"/>
	</g>
</g>
<g>
	<g>
		<path d="M114.333,120.834c3.224,0,3.224-5,0-5S111.109,120.834,114.333,120.834L114.333,120.834z"/>
	</g>
</g>
<g>
	<g>
		<path d="M132,119.834c3.224,0,3.224-5,0-5S128.776,119.834,132,119.834L132,119.834z"/>
	</g>
</g>
<g>
	<g>
		<path d="M145.667,119.834c3.224,0,3.224-5,0-5S142.442,119.834,145.667,119.834L145.667,119.834z"/>
	</g>
</g>
<g>
	<g>
		<path d="M157.667,119.834c3.224,0,3.224-5,0-5S154.443,119.834,157.667,119.834L157.667,119.834z"/>
	</g>
</g>
<g>
	<g>
		<path d="M173.333,119.834c3.224,0,3.224-5,0-5S170.109,119.834,173.333,119.834L173.333,119.834z"/>
	</g>
</g>
<g>
	<g>
		<path d="M187.667,118.834c3.224,0,3.224-5,0-5S184.442,118.834,187.667,118.834L187.667,118.834z"/>
	</g>
</g>
<g>
	<g>
		<path d="M202.667,118.5c3.224,0,3.224-5,0-5S199.442,118.5,202.667,118.5L202.667,118.5z"/>
	</g>
</g>
<g>
	<g>
		<path d="M215.667,118.834c3.224,0,3.224-5,0-5S212.442,118.834,215.667,118.834L215.667,118.834z"/>
	</g>
</g>
<g>
	<g>
		<path d="M229.333,118.5c3.224,0,3.224-5,0-5S226.109,118.5,229.333,118.5L229.333,118.5z"/>
	</g>
</g>
<g>
	<g>
		<path d="M245.667,118.5c3.224,0,3.224-5,0-5S242.442,118.5,245.667,118.5L245.667,118.5z"/>
	</g>
</g>
<g>
	<g>
		<path d="M259,118.5c3.224,0,3.224-5,0-5S255.776,118.5,259,118.5L259,118.5z"/>
	</g>
</g>
<g>
	<g>
		<path d="M273.333,117.76c3.224,0,3.224-5,0-5S270.109,117.76,273.333,117.76L273.333,117.76z"/>
	</g>
</g>
<g>
	<g>
		<path d="M288.667,117.76c3.224,0,3.224-5,0-5S285.442,117.76,288.667,117.76L288.667,117.76z"/>
	</g>
</g>
<g>
	<g>
		<path d="M303.333,116.76c3.224,0,3.224-5,0-5S300.109,116.76,303.333,116.76L303.333,116.76z"/>
	</g>
</g>
<g>
	<g>
		<path d="M316.333,116.76c3.224,0,3.224-5,0-5S313.109,116.76,316.333,116.76L316.333,116.76z"/>
	</g>
</g>
<g>
	<g>
		<path d="M330.667,116.76c3.224,0,3.224-5,0-5S327.442,116.76,330.667,116.76L330.667,116.76z"/>
	</g>
</g>
<g>
	<g>
		<path d="M344.667,116.76c3.224,0,3.224-5,0-5S341.442,116.76,344.667,116.76L344.667,116.76z"/>
	</g>
</g>
<g>
	<g>
		<path d="M357.667,116.76c3.224,0,3.224-5,0-5S354.442,116.76,357.667,116.76L357.667,116.76z"/>
	</g>
</g>
<g>
	<g>
		<path d="M427.667,116.76c3.225,0,3.225-5,0-5S424.442,116.76,427.667,116.76L427.667,116.76z"/>
	</g>
</g>
<g>
	<g>
		<path d="M414,116.76c3.225,0,3.225-5,0-5S410.775,116.76,414,116.76L414,116.76z"/>
	</g>
</g>
<g>
	<g>
		<path d="M399.667,116.76c3.225,0,3.225-5,0-5C396.443,111.76,396.443,116.76,399.667,116.76L399.667,116.76z"/>
	</g>
</g>
<g>
	<g>
		<path d="M385.667,116.76c3.224,0,3.224-5,0-5S382.443,116.76,385.667,116.76L385.667,116.76z"/>
	</g>
</g>
<g>
	<g>
		<path d="M371.667,116.76c3.224,0,3.224-5,0-5S368.443,116.76,371.667,116.76L371.667,116.76z"/>
	</g>
</g>
<g>
	<g>
		<path d="M440,116.76c3.225,0,3.225-5,0-5S436.775,116.76,440,116.76L440,116.76z"/>
	</g>
</g>
<g>
	<g>
		<path d="M453,116.76c3.225,0,3.225-5,0-5S449.775,116.76,453,116.76L453,116.76z"/>
	</g>
</g>
<g>
	<g>
		<path d="M466.667,116.76c3.225,0,3.225-5,0-5S463.442,116.76,466.667,116.76L466.667,116.76z"/>
	</g>
</g>
<g>
	<g>
		<path d="M481,116.76c3.225,0,3.225-5,0-5S477.775,116.76,481,116.76L481,116.76z"/>
	</g>
</g>
<g>
	<g>
		<path d="M495,116.76c3.225,0,3.225-5,0-5S491.775,116.76,495,116.76L495,116.76z"/>
	</g>
</g>
<g>
	<g>
		<path d="M508.889,116.76c3.225,0,3.225-5,0-5S505.664,116.76,508.889,116.76L508.889,116.76z"/>
	</g>
</g>
<g>
	<g>
		<path d="M521,116.76c3.225,0,3.225-5,0-5S517.775,116.76,521,116.76L521,116.76z"/>
	</g>
</g>
<g>
	<g>
		<path d="M536.111,116.76c3.225,0,3.225-5,0-5S532.887,116.76,536.111,116.76L536.111,116.76z"/>
	</g>
</g>
<g>
	<g>
		<path d="M601.111,117.76c3.225,0,3.225-5,0-5S597.887,117.76,601.111,117.76L601.111,117.76z"/>
	</g>
</g>
<g>
	<g>
		<path d="M588.334,117.5c3.225,0,3.225-5,0-5S585.109,117.5,588.334,117.5L588.334,117.5z"/>
	</g>
</g>
<g>
	<g>
		<path d="M575,116.76c3.225,0,3.225-5,0-5S571.775,116.76,575,116.76L575,116.76z"/>
	</g>
</g>
<g>
	<g>
		<path d="M561.667,116.76c3.225,0,3.225-5,0-5S558.442,116.76,561.667,116.76L561.667,116.76z"/>
	</g>
</g>
<g>
	<g>
		<path d="M548.334,116.76c3.225,0,3.225-5,0-5S545.109,116.76,548.334,116.76L548.334,116.76z"/>
	</g>
</g>
<g>
	<g>
		<path d="M615,117.5c3.225,0,3.225-5,0-5S611.775,117.5,615,117.5L615,117.5z"/>
	</g>
</g>
<g>
	<g>
		<path d="M628.889,117.76c3.225,0,3.225-5,0-5S625.664,117.76,628.889,117.76L628.889,117.76z"/>
	</g>
</g>
<g>
	<g>
		<path d="M641.667,117.76c3.225,0,3.225-5,0-5S638.442,117.76,641.667,117.76L641.667,117.76z"/>
	</g>
</g>
<g>
	<g>
		<path d="M655,117.5c3.225,0,3.225-5,0-5S651.775,117.5,655,117.5L655,117.5z"/>
	</g>
</g>
<g>
	<g>
		<path d="M667.223,117.76c3.225,0,3.225-5,0-5S663.998,117.76,667.223,117.76L667.223,117.76z"/>
	</g>
</g>
<g>
	<g>
		<path d="M681.111,117.76c3.225,0,3.225-5,0-5S677.887,117.76,681.111,117.76L681.111,117.76z"/>
	</g>
</g>
<g>
	<g>
		<path d="M692.778,117.834c3.225,0,3.225-5,0-5S689.554,117.834,692.778,117.834L692.778,117.834z"/>
	</g>
</g>
<g>
	<g>
		<path d="M705.556,117.76c3.225,0,3.225-5,0-5S702.331,117.76,705.556,117.76L705.556,117.76z"/>
	</g>
</g>
<g>
	<g>
		<path d="M747.223,118.834c3.225,0,3.225-5,0-5S743.998,118.834,747.223,118.834L747.223,118.834z"/>
	</g>
</g>
<g>
	<g>
		<path d="M731.667,118.5c3.225,0,3.225-5,0-5S728.442,118.5,731.667,118.5L731.667,118.5z"/>
	</g>
</g>
<g>
	<g>
		<path d="M719.444,118.76c3.225,0,3.225-5,0-5S716.22,118.76,719.444,118.76L719.444,118.76z"/>
	</g>
</g>
<g>
	<g>
		<path d="M761.111,118.5c3.225,0,3.225-5,0-5S757.887,118.5,761.111,118.5L761.111,118.5z"/>
	</g>
</g>
</svg>
